<svg aria-hidden="true" style="position: absolute; width: 0; height: 0; overflow: hidden;" version="1.1"
    xmlns="http://www.w3.org/2000/svg" xmlns:xlink="http://www.w3.org/1999/xlink">
    <defs>
        <symbol id="snow-globe-icon" viewBox="0 0 26 32">
            <path
                d="M13.083 0c0.002 0 0.003 0 0.005 0 7.221 0 13.076 5.854 13.076 13.076 0 3.927-1.731 7.45-4.472 9.846l-0.015 0.013 0.042 0.042c0.47 0.465 0.762 1.11 0.763 1.823v0c0 0.001 0 0.003 0 0.005 0 0.104-0.025 0.201-0.069 0.288l0.002-0.004h1.346c0.313 0.001 0.595 0.128 0.799 0.333l0 0c0.205 0.205 0.332 0.487 0.333 0.799v4.636c-0.001 0.313-0.128 0.595-0.333 0.799l-0 0c-0.205 0.205-0.487 0.332-0.799 0.333h-21.677c-0.313-0.001-0.595-0.128-0.799-0.333l-0-0c-0.205-0.204-0.333-0.487-0.333-0.799v-4.636c0.001-0.309 0.125-0.588 0.326-0.792l-0 0c0.205-0.207 0.49-0.336 0.804-0.336 0.001 0 0.002 0 0.003 0h1.346c-0.044-0.084-0.070-0.183-0.070-0.289v-0c0.003-0.713 0.294-1.357 0.763-1.823l0-0 0.039-0.036c0.052-0.049 0.107-0.099 0.164-0.146-2.661-2.404-4.326-5.867-4.326-9.719 0-7.224 5.856-13.081 13.081-13.081 0.001 0 0.002 0 0.003 0h-0zM22.182 7.031c0.001 0 0.002 0 0.003 0 0.246 0 0.445 0.199 0.445 0.445s-0.199 0.445-0.445 0.445c-0.246 0-0.445-0.199-0.445-0.445v0c0.001-0.244 0.198-0.442 0.442-0.445h0zM10.893 2.701c0.245 0 0.443 0.198 0.443 0.443s-0.198 0.443-0.443 0.443c-0.245 0-0.443-0.198-0.443-0.443v0c0-0.244 0.198-0.443 0.443-0.443v0zM16.289 5.164c0.244 0 0.443 0.198 0.443 0.443s-0.198 0.443-0.443 0.443c-0.244 0-0.443-0.198-0.443-0.443v0c0-0.245 0.198-0.443 0.443-0.443v0zM22.245 16.117c0.244 0 0.443 0.198 0.443 0.443s-0.198 0.443-0.443 0.443c-0.244 0-0.443-0.198-0.443-0.443v0c0-0.244 0.198-0.443 0.443-0.443v0zM21.076 13.302c0.244 0 0.443 0.198 0.443 0.443s-0.198 0.443-0.443 0.443c-0.244 0-0.443-0.198-0.443-0.443v0c0-0.245 0.198-0.443 0.443-0.443v0zM5.99 19.161c0.001 0 0.002 0 0.003 0 0.246 0 0.445 0.199 0.445 0.445s-0.199 0.445-0.445 0.445c-0.246 0-0.445-0.199-0.445-0.445v0c0 0 0 0 0 0 0-0.245 0.198-0.444 0.443-0.445h0zM3.646 16.125c0.393 0 0.711 0.318 0.711 0.711s-0.318 0.711-0.711 0.711c-0.393 0-0.711-0.318-0.711-0.711v0c0-0.393 0.318-0.711 0.711-0.711v0zM3.508 12.654c0.001 0 0.002 0 0.003 0 0.246 0 0.445 0.199 0.445 0.445s-0.199 0.445-0.445 0.445c-0.246 0-0.445-0.199-0.445-0.445v0c0 0 0 0 0 0 0-0.245 0.198-0.444 0.443-0.445h0zM3.924 9.977c0.245 0.002 0.443 0.2 0.443 0.445s-0.199 0.445-0.445 0.445-0.445-0.199-0.445-0.445c0-0.002 0-0.004 0-0.005v0c0-0.246 0.199-0.445 0.445-0.445v0zM4.982 6.563c0.245 0 0.443 0.198 0.443 0.443s-0.198 0.443-0.443 0.443c-0.245 0-0.443-0.198-0.443-0.443v0c0-0.245 0.198-0.443 0.443-0.443v0zM6.609 9.971c0.288 0 0.521 0.233 0.521 0.521s-0.233 0.521-0.521 0.521c-0.288 0-0.521-0.233-0.521-0.521v0c0-0.288 0.233-0.521 0.521-0.521v0zM20.12 9.294c0.311 0 0.563 0.252 0.563 0.563s-0.252 0.563-0.563 0.563c-0.311 0-0.563-0.252-0.563-0.563v0c0-0.311 0.252-0.563 0.563-0.563v0zM23.766 11.898c0.244 0 0.443 0.198 0.443 0.443s-0.198 0.443-0.443 0.443c-0.244 0-0.443-0.198-0.443-0.443v0c0-0.245 0.198-0.443 0.443-0.443v0zM17.328 7.885c0.001 0 0.002 0 0.003 0 0.267 0 0.484 0.217 0.484 0.484s-0.217 0.484-0.484 0.484c-0.267 0-0.484-0.217-0.484-0.484 0-0.001 0-0.002 0-0.003v0c0-0.266 0.216-0.482 0.482-0.482v0zM12.831 5.258c0.001 0 0.002 0 0.003 0 0.246 0 0.445 0.199 0.445 0.445s-0.199 0.445-0.445 0.445c-0.246 0-0.445-0.199-0.445-0.445 0-0.001 0-0.002 0-0.003v0c0-0.245 0.198-0.443 0.443-0.443v0zM9.706 6.599c0.245 0 0.443 0.198 0.443 0.443s-0.198 0.443-0.443 0.443c-0.245 0-0.443-0.198-0.443-0.443v0c0-0.245 0.198-0.443 0.443-0.443v0zM7.552 16.406l-2.083-0.398c-0.148-0.029-0.258-0.158-0.258-0.313 0-0.176 0.142-0.318 0.318-0.318 0.021 0 0.042 0.002 0.062 0.006l-0.002-0 1.109 0.211-0.708-0.669c-0.061-0.058-0.099-0.14-0.099-0.23 0-0.175 0.142-0.318 0.318-0.318 0.085 0 0.162 0.033 0.219 0.087l-0-0 0.719 0.682-0.245-1.083c-0.005-0.021-0.008-0.046-0.008-0.072 0-0.176 0.142-0.318 0.318-0.318 0.15 0 0.276 0.104 0.309 0.244l0 0.002 0.469 2.016 1.026 0.992c0.106-0.16 0.214-0.3 0.331-0.431l-0.003 0.004c-0.038-0.081-0.060-0.176-0.060-0.277 0-0.001 0-0.001 0-0.002v0c0.001-0.383 0.312-0.693 0.695-0.693 0 0 0 0 0 0h0.365l-0.128-0.12c-0.499-0.497-0.807-1.184-0.807-1.943 0-0.002 0-0.003 0-0.005v0c0-0.347 0.064-0.679 0.181-0.985l-0.006 0.019c0.086-0.23 0.191-0.428 0.318-0.61l-0.006 0.009h-1.172c-0.096-0.012-0.17-0.093-0.17-0.191s0.074-0.18 0.169-0.191l0.001-0h1.25v-1.266c0-0.001 0-0.001 0-0.002 0-0.262 0.107-0.499 0.279-0.67l0-0c0.173-0.174 0.413-0.281 0.678-0.281 0.002 0 0.005 0 0.007 0h2.515c0.526 0.001 0.952 0.427 0.953 0.953v1.266h1.143c0.096 0.012 0.17 0.093 0.17 0.191s-0.074 0.18-0.169 0.191l-0.001 0h-1.112c0.118 0.17 0.222 0.364 0.301 0.57l0.006 0.019c0.109 0.285 0.172 0.614 0.172 0.958 0 0.761-0.309 1.45-0.807 1.948v0l-0.128 0.12h0.411c0.382 0.001 0.691 0.311 0.693 0.693v0c0 0.001 0 0.003 0 0.005 0 0.092-0.018 0.18-0.051 0.26l0.002-0.005c0.123 0.139 0.239 0.291 0.345 0.451l0.009 0.015 1.042-0.979 0.469-2.016c0.034-0.142 0.16-0.246 0.31-0.246 0.176 0 0.318 0.142 0.318 0.318 0 0.025-0.003 0.050-0.009 0.074l0-0.002-0.26 1.076 0.708-0.688c0.057-0.055 0.135-0.088 0.22-0.088 0.176 0 0.319 0.143 0.319 0.319 0 0.091-0.038 0.172-0.098 0.23l-0 0-0.701 0.68 1.107-0.211c0.018-0.004 0.039-0.006 0.060-0.006 0.176 0 0.318 0.142 0.318 0.318 0 0.155-0.11 0.283-0.256 0.312l-0.002 0-2.083 0.398-1.146 1.083c0.202 0.451 0.32 0.977 0.32 1.531 0 1.056-0.428 2.011-1.12 2.703v0c-0.175 0.174-0.365 0.331-0.569 0.47l-0.014 0.009h3.755v-0.599h-1.411c-0.237 0.021-0.284-0.167-0.182-0.323l0.906-1.063-0.026-0.026h-0.495c-0.174 0.026-0.24-0.164-0.133-0.297l0.971-1.156h-0.286c-0.177 0-0.221-0.161-0.107-0.315l0.888-1.057c0.060-0.070 0.125-0.177 0.232-0.174s0.146 0.089 0.201 0.151l0.945 1.102c0.024 0.031 0.039 0.070 0.039 0.113 0 0.101-0.082 0.182-0.182 0.182-0.005 0-0.011-0-0.016-0.001l0.001 0h-0.26l0.969 1.138c0.045 0.035 0.074 0.089 0.074 0.149 0 0.091-0.065 0.167-0.151 0.184l-0.001 0h-0.557l0.846 0.992c0.099 0.117 0.24 0.362-0.026 0.393h-1.521v0.607h1.779c2.649-2.184 4.324-5.466 4.324-9.139 0-6.528-5.292-11.82-11.82-11.82s-11.82 5.292-11.82 11.82c0 3.673 1.676 6.955 4.304 9.123l0.020 0.016h4.5c-0.218-0.148-0.409-0.306-0.584-0.479l0 0c-0.692-0.693-1.12-1.65-1.12-2.706 0-0.555 0.118-1.082 0.33-1.558l-0.010 0.024-1.146-1.089zM12.182 19.792c0.167 0.001 0.302 0.137 0.302 0.305s-0.136 0.305-0.305 0.305-0.305-0.136-0.305-0.305v0c0 0 0 0 0 0 0-0.168 0.136-0.305 0.305-0.305 0.001 0 0.002 0 0.003 0h-0zM12.182 18.435c0.167 0.001 0.302 0.137 0.302 0.305s-0.136 0.305-0.305 0.305-0.305-0.136-0.305-0.305v0c0 0 0 0 0 0 0-0.168 0.136-0.305 0.305-0.305 0.001 0 0.002 0 0.003 0h-0zM12.182 14.094c0.17 0 0.307 0.138 0.307 0.307s-0.138 0.307-0.307 0.307c-0.17 0-0.307-0.138-0.307-0.307 0-0.001 0-0.002 0-0.003v0c0 0 0 0 0 0 0-0.168 0.136-0.305 0.305-0.305 0.001 0 0.002 0 0.003 0h-0zM13.021 12.971c0.003-0 0.007-0 0.010-0 0.168 0 0.305 0.136 0.305 0.305s-0.136 0.305-0.305 0.305c-0.166 0-0.302-0.133-0.305-0.299v-0c-0-0.002-0-0.004-0-0.005 0-0.165 0.131-0.299 0.294-0.305h0.001zM11.328 12.971c0.003-0 0.007-0 0.010-0 0.168 0 0.305 0.136 0.305 0.305s-0.136 0.305-0.305 0.305c-0.166 0-0.302-0.133-0.305-0.299v-0c0-0.168 0.136-0.305 0.305-0.305v0zM14.352 16.904v1.753c-0.001 0.112-0.092 0.202-0.203 0.203h-1.172c-0.112-0.001-0.202-0.092-0.203-0.203v-1.753h-2.794c-0.021 0.002-0.046 0.003-0.070 0.003s-0.049-0.001-0.073-0.003l0.003 0c-0.175 0.188-0.329 0.4-0.455 0.63l-0.008 0.016-0.016 0.029c-0.22 0.422-0.349 0.921-0.349 1.45 0 1.7 1.33 3.090 3.007 3.185l0.008 0h0.349c1.683-0.097 3.012-1.486 3.012-3.185 0-0.826-0.314-1.579-0.829-2.146l0.002 0.003c-0.049 0.011-0.105 0.017-0.163 0.018h-0.001zM12.19 15.206c0 0 0 0 0 0 0.459 0 0.899 0.080 1.308 0.227l-0.027-0.008c0.135-0.090 0.252-0.187 0.359-0.294l0-0c0.43-0.429 0.695-1.021 0.695-1.676 0-0.001 0-0.003 0-0.004v0c0-0.001 0-0.002 0-0.003 0-0.295-0.053-0.578-0.151-0.839l0.005 0.017c-0.105-0.276-0.248-0.513-0.427-0.719l0.002 0.003h-3.583c-0.361 0.415-0.581 0.961-0.581 1.558 0 0.655 0.265 1.248 0.693 1.679l-0-0c0.116 0.113 0.243 0.216 0.378 0.307l0.010 0.006c0.393-0.15 0.848-0.237 1.323-0.237 0.002 0 0.003 0 0.005 0h-0zM7.997 4.591c0.288 0 0.521 0.233 0.521 0.521s-0.233 0.521-0.521 0.521c-0.288 0-0.521-0.233-0.521-0.521v0c0-0.288 0.233-0.521 0.521-0.521v0zM12.589 2.896c-0.191-0.022-0.338-0.183-0.338-0.378 0-0.205 0.163-0.372 0.366-0.38l0.001-0c0.224 0 0.451 0.023 0.68 0.044s0.445 0.044 0.674 0.076c0.191 0.022 0.337 0.183 0.337 0.378 0 0.21-0.17 0.38-0.38 0.38-0.022 0-0.044-0.002-0.066-0.006l0.002 0c-0.203-0.029-0.414-0.052-0.633-0.073s-0.424-0.034-0.643-0.042zM15.82 3.458c-0.145-0.056-0.247-0.194-0.247-0.356 0-0.21 0.17-0.38 0.38-0.38 0.034 0 0.067 0.004 0.098 0.013l-0.003-0.001c1.808 0.588 3.366 1.504 4.678 2.687l-0.011-0.010c0.076 0.070 0.124 0.171 0.124 0.283 0 0.212-0.172 0.384-0.384 0.384-0.101 0-0.192-0.039-0.261-0.102l0 0c-1.222-1.105-2.687-1.967-4.303-2.494l-0.085-0.024zM21.289 25.094c-0.044-0.084-0.070-0.183-0.070-0.289v-0c-0.002-0.709-0.559-1.287-1.26-1.323l-0.003-0h-14.117c-0.313 0.024-0.592 0.156-0.803 0.357l0-0-0.026 0.026c-0.24 0.239-0.389 0.57-0.391 0.935v0c0 0.001 0 0.003 0 0.005 0 0.104-0.025 0.201-0.069 0.288l0.002-0.004zM23.633 26.362h-21.422v4.367h21.424v-4.367z">
            </path>
        </symbol>
        <symbol id="seo-icon" viewBox="0 0 40 32">
            <path fill="#90caf8" style="fill: var(--color1, #90caf8)"
                d="M22.213 1.553c6.853 0 12.406 5.556 12.406 12.406 0 6.853-5.556 12.406-12.406 12.406-3.503 0-6.665-1.452-8.923-3.786h3.928c0.292 0 0.572-0.042 0.832-0.123 1.254 0.617 2.668 0.962 4.162 0.962 5.225 0 9.459-4.237 9.459-9.459 0-5.225-4.234-9.459-9.459-9.459-1.527 0-2.97 0.364-4.25 1.007-0.309-0.117-0.65-0.182-1.007-0.182h-3.649c2.255-2.33 5.413-3.773 8.907-3.773v0 0z">
            </path>
            <path fill="#263036" style="fill: var(--color2, #263036)"
                d="M8.569 11.402h-3.62v-0.959c0-0.448-0.049-0.734-0.14-0.858s-0.244-0.182-0.458-0.182c-0.234 0-0.409 0.081-0.53 0.25-0.12 0.162-0.179 0.413-0.179 0.747 0 0.432 0.068 0.757 0.205 0.975 0.133 0.214 0.5 0.481 1.102 0.793 1.729 0.894 2.817 1.628 3.266 2.197 0.452 0.572 0.676 1.491 0.676 2.759 0 0.923-0.127 1.602-0.377 2.041s-0.731 0.803-1.446 1.098c-0.715 0.299-1.543 0.445-2.496 0.445-1.043 0-1.93-0.172-2.671-0.513-0.738-0.341-1.215-0.773-1.446-1.303-0.227-0.53-0.341-1.28-0.341-2.249v-0.851h3.62v1.576c0 0.484 0.052 0.799 0.153 0.936 0.101 0.14 0.283 0.208 0.539 0.208 0.26 0 0.452-0.088 0.578-0.263s0.188-0.435 0.188-0.78c0-0.76-0.12-1.261-0.361-1.495-0.25-0.234-0.855-0.627-1.823-1.18-0.968-0.556-1.605-0.959-1.92-1.209-0.312-0.25-0.575-0.598-0.78-1.040-0.205-0.445-0.309-1.011-0.309-1.699 0-0.991 0.146-1.719 0.439-2.177s0.764-0.816 1.42-1.076c0.653-0.26 1.439-0.387 2.366-0.387 1.011 0 1.872 0.143 2.583 0.422 0.712 0.283 1.183 0.64 1.413 1.069s0.348 1.157 0.348 2.187v0.517zM22.2 0c3.857 0 7.347 1.563 9.875 4.091 2.525 2.525 4.088 6.018 4.088 9.875 0 2.82-0.835 5.446-2.278 7.643l6.044 6.587-4.166 3.808-5.826-6.411c-2.213 1.475-4.874 2.34-7.734 2.34-3.857 0-7.347-1.563-9.875-4.091-0.396-0.396-0.77-0.819-1.118-1.261h2.060c0.052 0.052 0.104 0.107 0.156 0.159 2.245 2.245 5.348 3.633 8.773 3.633s6.528-1.387 8.773-3.633 3.633-5.349 3.633-8.773-1.384-6.528-3.63-8.773v0 0c-2.245-2.245-5.349-3.633-8.773-3.633s-6.528 1.388-8.773 3.633c-0.042 0.042-0.088 0.088-0.13 0.13h-2.070c0.341-0.432 0.705-0.845 1.095-1.232 2.528-2.528 6.018-4.091 9.875-4.091v0 0 0zM10.278 7.47h6.677v2.586h-2.772v2.473h2.6v2.457h-2.599v2.85h3.035v2.587h-6.941v-12.952zM27.545 15.064c0 1.303-0.036 2.223-0.107 2.762-0.068 0.543-0.289 1.037-0.663 1.485s-0.877 0.793-1.514 1.033c-0.637 0.24-1.375 0.361-2.219 0.361-0.803 0-1.521-0.114-2.158-0.341s-1.154-0.565-1.54-1.017c-0.39-0.452-0.621-0.949-0.695-1.478-0.072-0.536-0.11-1.469-0.11-2.801v-2.216c0-1.303 0.036-2.223 0.107-2.762 0.068-0.543 0.292-1.037 0.663-1.485s0.877-0.793 1.514-1.033 1.375-0.361 2.219-0.361c0.803 0 1.521 0.114 2.158 0.341s1.154 0.565 1.54 1.017c0.39 0.455 0.621 0.949 0.695 1.478 0.072 0.536 0.11 1.469 0.11 2.801v2.216zM23.639 10.811c0-0.601-0.039-0.985-0.114-1.154-0.075-0.166-0.231-0.25-0.465-0.25-0.198 0-0.351 0.068-0.458 0.205-0.104 0.133-0.159 0.536-0.159 1.202v6.047c0 0.751 0.036 1.215 0.104 1.391 0.068 0.179 0.231 0.263 0.484 0.263 0.26 0 0.426-0.101 0.5-0.302s0.107-0.686 0.107-1.446v-5.956z">
            </path>
        </symbol>
        <symbol id="web-search-icon" viewBox="0 0 40 32">
            <path fill="#263036" style="fill: var(--color2, #263036)"
                d="M2.303 0h29.404c1.268 0 2.303 1.035 2.303 2.303v21.351c0 1.265-1.035 2.303-2.303 2.303h-29.404c-1.268 0-2.303-1.038-2.303-2.303v-21.351c0-1.268 1.035-2.303 2.303-2.303z">
            </path>
            <path fill="#fff" style="fill: var(--color3, #fff)"
                d="M32.476 6.446h-30.838v17.432c0 0.354 0.282 0.636 0.637 0.636h29.554c0.001 0 0.002 0 0.004 0 0.349 0 0.633-0.283 0.633-0.633 0-0.001 0-0.003 0-0.004v0-17.432h0.011z">
            </path>
            <path fill="#0cb2ed" style="fill: var(--color4, #0cb2ed)"
                d="M3.971 8.716h21.109c-3.152 1.008-5.791 3.271-7.268 6.243h-13.841c-0.287 0-0.523-0.235-0.523-0.523v-5.196c0-0.288 0.236-0.523 0.523-0.523z">
            </path>
            <path fill="#263036" style="fill: var(--color2, #263036)"
                d="M3.892 17.075h13.060v1.222h-13.060zM3.892 20.408h12.808v1.222h-12.808z"></path>
            <path fill="#263036" style="fill: var(--color2, #263036)"
                d="M28.71 11.042c0.001 0 0.003 0 0.005 0 2.54 0 4.839 1.030 6.502 2.696l0 0c2.387 2.386 3.274 5.905 2.313 9.136-0.244 0.806-0.562 1.507-0.958 2.155l0.023-0.040 3.564 3.884c0.072 0.078 0.116 0.183 0.116 0.298 0 0.128-0.055 0.243-0.142 0.324l-0 0-2.616 2.39c-0.078 0.071-0.182 0.115-0.296 0.115-0.128 0-0.243-0.055-0.324-0.142l-0-0-3.409-3.749c-1.444 0.879-3.086 1.338-4.777 1.338-2.444 0-4.779-0.968-6.507-2.696-0.833-0.833-1.508-1.826-1.974-2.928l-0.023-0.060c-1.426-3.435-0.616-7.412 1.998-10.024 0.833-0.834 1.824-1.509 2.926-1.975l0.060-0.023c1.085-0.451 2.275-0.699 3.519-0.699z">
            </path>
            <path fill="#90caf8" style="fill: var(--color1, #90caf8)"
                d="M34.29 14.663c-2.252-2.252-5.666-2.93-8.599-1.715-5.264 2.179-6.474 8.966-2.563 12.875 2.257 2.251 5.664 2.931 8.6 1.715 2.953-1.226 4.873-4.098 4.873-7.295 0-2.105-0.822-4.091-2.311-5.58z">
            </path>
            <path fill="#fff" style="fill: var(--color3, #fff)"
                d="M24.624 19.13c-0.165 0.349-0.581 0.499-0.931 0.334s-0.499-0.581-0.334-0.931c0.275-0.577 0.58-1.073 0.931-1.532l-0.015 0.021c0.354-0.468 0.764-0.907 1.229-1.318 0.289-0.255 0.73-0.228 0.985 0.060s0.228 0.73-0.060 0.985c-0.381 0.336-0.722 0.702-1.024 1.098l-0.013 0.018c-0.281 0.367-0.537 0.782-0.749 1.222l-0.019 0.043z">
            </path>
            <path fill="#ffd150" style="fill: var(--color5, #ffd150)"
                d="M25.662 2.588c0.628 0 1.138 0.509 1.138 1.138s-0.509 1.137-1.138 1.137c-0.628 0-1.138-0.509-1.138-1.137s0.509-1.138 1.138-1.138z">
            </path>
            <path fill="#f26a64" style="fill: var(--color6, #f26a64)"
                d="M21.81 2.588c0.628 0 1.137 0.509 1.137 1.138s-0.509 1.137-1.137 1.137c-0.628 0-1.138-0.509-1.138-1.137s0.509-1.138 1.138-1.138z">
            </path>
            <path fill="#0cb2ed" style="fill: var(--color4, #0cb2ed)"
                d="M29.515 2.588c0.628 0 1.137 0.509 1.137 1.138s-0.509 1.137-1.137 1.137-1.138-0.509-1.138-1.137c0.003-0.628 0.512-1.138 1.138-1.138z">
            </path>
        </symbol>
        <symbol id="snow-globe-color-icon" viewBox="0 0 26 32">
            <path fill="#493555" style="fill: var(--color7, #493555)"
                d="M13.019 0c3.595 0 6.85 1.458 9.206 3.813s3.813 5.611 3.813 9.206c0 2.028-0.466 3.951-1.297 5.667-0.861 1.778-2.117 3.332-3.654 4.547-0.132 0.105-0.301 0.169-0.485 0.169-0 0-0.001 0-0.001 0h0v0.004h-15.161c-0 0-0.001 0-0.001 0-0.212 0-0.404-0.084-0.546-0.22l0 0c-1.51-1.208-2.745-2.745-3.595-4.499-0.831-1.716-1.297-3.639-1.297-5.667 0-3.595 1.457-6.85 3.813-9.206s5.611-3.813 9.206-3.813z">
            </path>
            <path fill="#84ccfc" style="fill: var(--color8, #84ccfc)"
                d="M13.019 0.788c6.755 0 12.231 5.476 12.231 12.231 0 3.892-1.818 7.358-4.65 9.598h-15.162c-2.832-2.24-4.65-5.707-4.65-9.598 0-6.755 5.476-12.231 12.231-12.231z">
            </path>
            <path fill="#493555" style="fill: var(--color7, #493555)"
                d="M4.708 25.326c0 0.344-0.279 0.623-0.623 0.623s-0.623-0.279-0.623-0.623c0-0.701 0.286-1.338 0.748-1.8s1.099-0.748 1.8-0.748h13.706c0.701 0 1.338 0.286 1.8 0.748l0.036 0.039c0.44 0.458 0.712 1.080 0.712 1.761 0 0.344-0.279 0.623-0.623 0.623s-0.623-0.279-0.623-0.623c0-0.345-0.136-0.66-0.356-0.893l-0.027-0.025c-0.236-0.236-0.561-0.383-0.919-0.383h-13.706c-0.357 0-0.682 0.147-0.919 0.383s-0.383 0.561-0.383 0.919z">
            </path>
            <path fill="#493555" style="fill: var(--color7, #493555)"
                d="M2.207 25.215h21.31c0.615 0 1.116 0.501 1.116 1.116v4.553c0 0.611-0.505 1.116-1.116 1.116h-21.31c-0.614 0-1.116-0.502-1.116-1.116v-4.553c0-0.614 0.504-1.116 1.116-1.116z">
            </path>
            <path fill="#726d77" style="fill: var(--color9, #726d77)"
                d="M2.207 25.838h21.31c0.271 0 0.493 0.222 0.493 0.493v4.553c0 0.271-0.223 0.493-0.493 0.493h-21.31c-0.27 0-0.493-0.222-0.493-0.493v-4.553c0-0.271 0.222-0.493 0.493-0.493z">
            </path>
            <path fill="#4a3054" style="fill: var(--color10, #4a3054)"
                d="M17.573 22.678v-0.503l-1.049-0c-0.137 0.005-0.252-0.029-0.344-0.088-0.068-0.043-0.122-0.101-0.162-0.169l-0.001-0.002c-0.009-0.015-0.017-0.032-0.024-0.050l-0.001-0.003c-0.020-0.046-0.034-0.1-0.040-0.156l-0-0.002-0.001-0.013c-0.009-0.127 0.027-0.264 0.105-0.382 0.012-0.018 0.026-0.036 0.041-0.051l0.429-0.502-0.029-0.012c-0.103-0.047-0.185-0.126-0.235-0.224l-0.001-0.003-0.015-0.035c-0.025-0.060-0.040-0.129-0.040-0.202 0-0.018 0.001-0.036 0.003-0.053l-0 0.002c0.011-0.118 0.057-0.224 0.125-0.309l-0.001 0.001 0.587-0.689c-0.043-0.040-0.078-0.088-0.104-0.141l-0.001-0.003-0.004-0.009c-0.026-0.058-0.042-0.125-0.044-0.195v-0c-0.003-0.126 0.039-0.264 0.131-0.388 0.306-0.365 0.612-0.733 0.921-1.096 0.101-0.127 0.22-0.262 0.471-0.257 0.24 0.005 0.345 0.133 0.44 0.25 0.29 0.369 0.639 0.746 0.948 1.106l0.022 0.028c0.073 0.104 0.107 0.218 0.107 0.326-0 0.15-0.065 0.285-0.167 0.379l-0 0 0.572 0.671c0.072 0.075 0.123 0.171 0.143 0.278l0.001 0.003c0.006 0.030 0.009 0.065 0.009 0.101 0 0.055-0.008 0.109-0.023 0.159l0.001-0.004c-0.027 0.087-0.072 0.162-0.132 0.223l0-0c-0.044 0.045-0.097 0.082-0.155 0.108l-0.003 0.001 0.368 0.432c0.057 0.067 0.124 0.164 0.165 0.264l0.009 0.026c0.030 0.084 0.045 0.175 0.032 0.266l-0.003 0.020c-0.024 0.134-0.097 0.248-0.237 0.325-0.062 0.034-0.134 0.057-0.216 0.067l-0.042 0.002-1.142 0v0.503c-0 0.196-0.159 0.355-0.355 0.355h-0.702c-0.196-0-0.355-0.159-0.355-0.355v0z">
            </path>
            <path fill="#25db7e" style="fill: var(--color11, #25db7e)"
                d="M17.928 22.678v-0.858h-1.394c-0.233 0.021-0.281-0.163-0.181-0.316l0.891-1.044-0.026-0.026h-0.477c-0.173 0.026-0.237-0.162-0.132-0.293l0.959-1.127h-0.28c-0.175 0.005-0.219-0.157-0.106-0.309l0.874-1.037c0.060-0.071 0.123-0.175 0.227-0.173 0.089 0.002 0.143 0.087 0.196 0.149l0.929 1.084c0.101 0.145 0.015 0.297-0.161 0.297h-0.251l0.952 1.116c0.114 0.113 0.056 0.294-0.075 0.319h-0.554l0.83 0.974c0.097 0.114 0.236 0.355-0.024 0.386h-1.496v0.858h-0.702z">
            </path>
            <path fill="#ccebff" style="fill: var(--color12, #ccebff)"
                d="M3.609 12.599c0.24 0 0.435 0.195 0.435 0.435 0 0 0 0 0 0v0c0 0.24-0.195 0.435-0.435 0.435v0c-0 0-0 0-0 0-0.24 0-0.435-0.195-0.435-0.435v0c0-0.24 0.195-0.435 0.435-0.435 0 0 0 0 0 0v0zM15.709 3.561c-0.149-0.051-0.253-0.19-0.253-0.353 0-0.206 0.167-0.372 0.372-0.372 0.038 0 0.074 0.006 0.109 0.016l-0.003-0.001c0.932 0.3 1.736 0.662 2.49 1.101l-0.060-0.032c0.816 0.473 1.522 0.989 2.168 1.571l-0.011-0.010c0.076 0.069 0.124 0.168 0.124 0.277 0 0.096-0.036 0.184-0.096 0.25l0-0c-0.069 0.076-0.168 0.123-0.278 0.123-0.096 0-0.184-0.036-0.25-0.096l0 0c-0.597-0.538-1.261-1.023-1.971-1.437l-0.057-0.030c-0.721-0.413-1.486-0.753-2.284-1.007zM12.535 3.011c-0.202-0.005-0.363-0.17-0.363-0.373 0-0.206 0.167-0.373 0.373-0.373 0.006 0 0.012 0 0.018 0l-0.001-0c0.22 0.008 0.443 0.022 0.668 0.042 0.233 0.021 0.455 0.046 0.663 0.076 0.204 0.029 0.346 0.218 0.317 0.422-0.027 0.182-0.182 0.321-0.37 0.321-0.019 0-0.037-0.001-0.055-0.004l0.002 0c-0.146-0.023-0.36-0.049-0.575-0.069l-0.048-0.004c-0.17-0.016-0.388-0.030-0.608-0.038l-0.022-0.001zM10.869 2.818c0.24 0 0.435 0.195 0.435 0.435 0 0 0 0 0 0v0c-0 0.24-0.195 0.435-0.435 0.435v0c-0.24 0-0.435-0.195-0.435-0.435s0.195-0.435 0.435-0.435v0zM4.017 9.968c0.24 0 0.435 0.195 0.435 0.435s-0.195 0.435-0.435 0.435v0c-0.238-0.003-0.43-0.197-0.43-0.435s0.192-0.432 0.43-0.435h0zM5.061 6.613c0.004-0 0.008-0 0.013-0 0.24 0 0.435 0.195 0.435 0.435s-0.195 0.435-0.435 0.435c-0.005 0-0.009-0-0.014-0l0.001 0c-0.235-0.007-0.422-0.199-0.422-0.435s0.188-0.428 0.422-0.435h0.001zM6.659 9.962c0.277 0 0.502 0.225 0.502 0.502s-0.225 0.502-0.502 0.502c-0 0-0 0-0 0v0c-0.277-0-0.502-0.225-0.502-0.502s0.225-0.502 0.502-0.502c0 0 0 0 0 0v0zM12.772 5.331c0.24 0 0.435 0.195 0.435 0.435s-0.195 0.435-0.435 0.435c-0 0-0 0-0 0v0c-0.24-0-0.435-0.195-0.435-0.435s0.195-0.435 0.435-0.435c0 0 0 0 0 0v0zM9.693 6.649c0.24 0 0.435 0.195 0.435 0.435 0 0 0 0 0 0v0c-0 0.24-0.195 0.435-0.435 0.435s-0.435-0.195-0.435-0.435c0-0.24 0.195-0.435 0.435-0.435 0 0 0 0 0 0v0zM8.022 4.676c0.277 0 0.502 0.225 0.502 0.502s-0.225 0.502-0.502 0.502c-0 0-0 0-0 0v0c-0.277-0-0.502-0.225-0.502-0.502s0.225-0.502 0.502-0.502c0 0 0 0 0 0v0zM16.17 5.238c0.24 0 0.435 0.195 0.435 0.435 0 0 0 0 0 0v0c-0 0.24-0.195 0.435-0.435 0.435v0c-0.24 0-0.435-0.195-0.435-0.435s0.195-0.435 0.435-0.435v0zM17.192 7.912c0.262 0 0.474 0.212 0.474 0.474 0 0 0 0 0 0v-0c-0 0.262-0.212 0.474-0.474 0.474v0c-0 0-0 0-0 0-0.262 0-0.474-0.212-0.474-0.474v0c0-0 0-0 0-0 0-0.262 0.212-0.474 0.474-0.474 0 0 0 0 0 0v0zM19.932 9.298c0.304 0 0.552 0.247 0.552 0.551s-0.247 0.552-0.552 0.552c-0.305-0-0.552-0.247-0.552-0.552 0-0 0-0 0-0v0c0-0.304 0.247-0.551 0.552-0.551zM21.961 7.082c0.24 0 0.435 0.195 0.435 0.435s-0.195 0.435-0.435 0.435c-0 0-0 0-0 0v0c-0.24-0-0.435-0.195-0.435-0.435s0.195-0.435 0.435-0.435c0 0 0 0 0 0v0zM23.507 11.85c0.24 0 0.435 0.195 0.435 0.435 0 0 0 0 0 0v0c0 0.24-0.195 0.435-0.435 0.435v0c-0.24 0-0.435-0.195-0.435-0.435s0.195-0.435 0.435-0.435v0zM20.872 13.234c0.004-0 0.008-0 0.013-0 0.24 0 0.435 0.195 0.435 0.435s-0.195 0.435-0.435 0.435c-0.005 0-0.009-0-0.014-0l0.001 0c-0.235-0.007-0.422-0.199-0.422-0.435s0.188-0.428 0.422-0.435h0.001zM22.021 16c0.24 0 0.435 0.195 0.435 0.435 0 0 0 0 0 0v0c0 0.24-0.195 0.435-0.435 0.435v0c-0.003 0-0.006 0-0.009 0-0.241 0-0.435-0.195-0.435-0.435s0.195-0.435 0.435-0.435c0.003 0 0.006 0 0.009 0h-0zM6.058 19.781c0.237 0.004 0.428 0.198 0.428 0.435s-0.191 0.431-0.428 0.435h-0c-0.24 0-0.435-0.195-0.435-0.435v0c0-0 0-0 0-0 0-0.24 0.195-0.435 0.435-0.435v0zM3.745 16.008c0.386 0 0.699 0.313 0.699 0.699s-0.313 0.699-0.699 0.699c-0.386 0-0.699-0.313-0.699-0.699s0.313-0.699 0.699-0.699z">
            </path>
            <path fill="#e38b5f" style="fill: var(--color13, #e38b5f)"
                d="M16.899 14.863l0.535-2.299c0.040-0.16 0.183-0.276 0.353-0.276 0.201 0 0.363 0.163 0.363 0.363 0 0.027-0.003 0.053-0.008 0.078l0-0.002-0.285 1.228 0.818-0.778c0.065-0.062 0.153-0.1 0.25-0.1 0.103 0 0.197 0.043 0.263 0.113l0 0c0.062 0.065 0.1 0.153 0.1 0.25 0 0.103-0.043 0.197-0.113 0.263l-0 0-0.817 0.777 1.267-0.242c0.020-0.004 0.043-0.006 0.067-0.006 0.177 0 0.324 0.126 0.356 0.294l0 0.002c0.004 0.020 0.006 0.043 0.006 0.067 0 0.177-0.126 0.324-0.294 0.356l-0.002 0-2.373 0.453-1.486 1.413c-0.065 0.062-0.153 0.1-0.25 0.1-0.103 0-0.197-0.043-0.263-0.113l-0-0c-0.062-0.065-0.1-0.153-0.1-0.25 0-0.103 0.043-0.197 0.112-0.263l0-0 1.502-1.427zM5.001 13.702c-0.069-0.066-0.113-0.159-0.113-0.263 0-0.097 0.038-0.185 0.1-0.25l-0 0c0.066-0.069 0.159-0.113 0.263-0.113 0.097 0 0.185 0.038 0.25 0.1l-0-0 0.819 0.779-0.286-1.229c-0.007-0.026-0.010-0.056-0.010-0.086 0-0.2 0.162-0.363 0.363-0.363 0.173 0 0.319 0.122 0.354 0.285l0 0.002 0.535 2.3 1.501 1.427c0.069 0.066 0.113 0.159 0.113 0.263 0 0.097-0.038 0.185-0.1 0.25l0-0c-0.066 0.069-0.159 0.113-0.263 0.113-0.097 0-0.185-0.038-0.25-0.1l0 0-1.487-1.413-2.373-0.453c-0.17-0.033-0.296-0.18-0.296-0.357 0-0.024 0.002-0.047 0.007-0.069l-0 0.002c0.033-0.17 0.18-0.296 0.357-0.296 0.024 0 0.047 0.002 0.069 0.007l-0.002-0 1.268 0.242-0.818-0.777z">
            </path>
            <path fill="#8b9aa6" style="fill: var(--color14, #8b9aa6)"
                d="M12.084 14.211c1.153 0 2.197 0.468 2.953 1.223s1.223 1.8 1.223 2.953c0 1.153-0.468 2.197-1.223 2.953s-1.8 1.223-2.953 1.223c-1.153 0-2.197-0.468-2.953-1.223s-1.223-1.8-1.223-2.953c0-1.153 0.468-2.197 1.223-2.953s1.8-1.223 2.953-1.223z">
            </path>
            <path fill="#e8f5ff" style="fill: var(--color15, #e8f5ff)"
                d="M12.084 14.386c2.21 0 4.001 1.791 4.001 4.001s-1.791 4.001-4.001 4.001c-2.21 0-4.001-1.791-4.001-4.001s1.791-4.001 4.001-4.001z">
            </path>
            <path fill="#f7594e" style="fill: var(--color16, #f7594e)"
                d="M14.549 15.961v2c-0.001 0.128-0.104 0.231-0.232 0.232h-1.335c-0.128-0-0.232-0.104-0.232-0.232v-2h-3.203c-0.435 0-0.79-0.356-0.79-0.791s0.356-0.791 0.79-0.791h5.041c0.435 0 0.79 0.356 0.79 0.791s-0.356 0.791-0.79 0.791h-0.039z">
            </path>
            <path fill="#ea4642" style="fill: var(--color17, #ea4642)"
                d="M14.549 15.961v2.437c-0.001 0.128-0.104 0.231-0.232 0.232h-1.335c-0.128-0-0.232-0.104-0.232-0.232v-2.437h-3.203c-0.435 0-0.79-0.356-0.79-0.791 0-0.019 0.001-0.038 0.002-0.056h6.618c0.001 0.019 0.002 0.038 0.002 0.056 0 0.435-0.356 0.791-0.791 0.791h-0.039z">
            </path>
            <path fill="#8b9aa6" style="fill: var(--color14, #8b9aa6)"
                d="M14.493 10.121c0.199 0.254 0.362 0.548 0.474 0.866l0.007 0.022c0.107 0.3 0.169 0.647 0.169 1.008 0 0.001 0 0.002 0 0.003v-0c0 0.856-0.347 1.632-0.908 2.193s-1.337 0.908-2.193 0.908c-0.856 0-1.632-0.347-2.193-0.908s-0.908-1.337-0.908-2.193c0-0.353 0.059-0.693 0.169-1.011 0.121-0.345 0.287-0.643 0.496-0.907l-0.005 0.007c0.032-0.041 0.082-0.067 0.137-0.067 0 0 0 0 0 0l4.609-0.001c0.062 0 0.116 0.032 0.147 0.080z">
            </path>
            <path fill="#e8f5ff" style="fill: var(--color15, #e8f5ff)"
                d="M14.345 10.217c0.388 0.49 0.622 1.117 0.622 1.799 0 0.002 0 0.003 0 0.005v-0c0 1.616-1.31 2.926-2.926 2.926s-2.926-1.31-2.926-2.926c0-0.001 0-0.003 0-0.004 0-0.682 0.234-1.309 0.626-1.805l-0.005 0.006h4.609z">
            </path>
            <path fill="#5e6c8a" style="fill: var(--color18, #5e6c8a)"
                d="M11.449 11.82c0 0.193-0.156 0.349-0.349 0.349s-0.349-0.156-0.349-0.349c0-0.193 0.156-0.349 0.349-0.349s0.349 0.156 0.349 0.349z">
            </path>
            <path fill="#5e6c8a" style="fill: var(--color18, #5e6c8a)"
                d="M13.379 11.82c0 0.193-0.156 0.349-0.349 0.349s-0.349-0.156-0.349-0.349c0-0.193 0.156-0.349 0.349-0.349s0.349 0.156 0.349 0.349z">
            </path>
            <path fill="#ea4642" style="fill: var(--color17, #ea4642)"
                d="M12.41 13.096c0 0.193-0.156 0.349-0.349 0.349s-0.349-0.156-0.349-0.349c0-0.193 0.156-0.349 0.349-0.349s0.349 0.156 0.349 0.349z">
            </path>
            <path fill="#565e75" style="fill: var(--color19, #565e75)"
                d="M14.588 9.66h1.304c0.202 0 0.365 0.164 0.365 0.365v0c-0 0.202-0.163 0.365-0.365 0.365h-1.416c-0.039 0.029-0.085 0.044-0.131 0.044l-4.609 0.001c-0 0-0 0-0 0-0.050 0-0.096-0.017-0.132-0.045l0.001 0h-1.494c-0.202-0-0.365-0.164-0.365-0.365v0c0-0.202 0.163-0.365 0.365-0.365h1.433l-0.001-1.299c0-0.299 0.122-0.571 0.319-0.767s0.468-0.319 0.767-0.319h2.873c0.299 0 0.571 0.122 0.767 0.319s0.319 0.468 0.319 0.767v1.299z">
            </path>
            <path fill="#000" style="fill: var(--color20, #000)" d="M9.543 9.625l-0-0.556h5.045v0.556z"></path>
        </symbol>
        <symbol id="lamp" viewBox="0 0 30 32">
            <path
                d="M17.632 23.055c1.893-0.485 3.537-1.553 4.754-3.087 1.493-1.881 2.155-4.23 1.864-6.614s-1.5-4.506-3.403-5.972c-1.844-1.421-4.142-2.053-6.471-1.779s-4.419 1.422-5.882 3.232c-1.255 1.552-1.939 3.424-1.979 5.413-0.065 3.23-1.178 6.365-3.134 8.83l-2.14 2.696c-0.949 1.196-0.749 2.941 0.447 3.891l2.018 1.602c1.196 0.949 2.941 0.749 3.891-0.447l2.14-2.696c1.978-2.491 4.702-4.248 7.897-5.068zM7.655 14.271c0.035-1.734 0.632-3.365 1.726-4.718 2.628-3.25 7.46-3.819 10.77-1.267 1.66 1.281 2.713 3.129 2.967 5.207s-0.323 4.126-1.625 5.766c-1.062 1.337-2.494 2.268-4.144 2.691-3.366 0.863-6.259 2.69-8.381 5.289l-4.561-3.621c2.028-2.632 3.181-5.943 3.249-9.347zM2.374 26.181l0.287-0.362 4.152 4.149-0.112 0.141c-0.059 0.075-0.125 0.141-0.193 0.202l-4.134-4.131zM3.375 24.919l0.322-0.406 4.568 3.626-0.737 0.929-4.152-4.149zM2.396 28.771c-0.48-0.381-0.687-0.98-0.592-1.546l3.498 3.495c-0.314-0.023-0.624-0.138-0.888-0.348l-2.018-1.601z">
            </path>
            <path
                d="M10.46 11.598c0.151-0.262 0.325-0.515 0.518-0.753 0.198-0.245 0.16-0.604-0.085-0.803-0.243-0.197-0.604-0.16-0.803 0.085-0.23 0.285-0.438 0.588-0.619 0.901-0.143 0.248-0.079 0.559 0.139 0.732 0.022 0.017 0.045 0.033 0.070 0.048 0.273 0.157 0.622 0.064 0.779-0.21z">
            </path>
            <path
                d="M7.702 20.475c0.046 0.037 0.099 0.067 0.158 0.088 0.296 0.109 0.624-0.042 0.733-0.338 0.7-1.9 1.076-3.889 1.117-5.913 0.007-0.335 0.042-0.668 0.106-0.992 0.061-0.309-0.141-0.609-0.45-0.67s-0.609 0.141-0.67 0.45c-0.076 0.389-0.119 0.788-0.127 1.189-0.038 1.897-0.39 3.761-1.047 5.541-0.088 0.237-0.007 0.495 0.18 0.644z">
            </path>
            <path
                d="M18.896 19.692c-0.149-0.278-0.495-0.382-0.773-0.233-0.403 0.216-0.835 0.385-1.285 0.5-0.305 0.078-0.489 0.389-0.411 0.695 0.032 0.125 0.104 0.23 0.198 0.305 0.135 0.107 0.317 0.152 0.497 0.106 0.539-0.138 1.058-0.34 1.541-0.6 0.278-0.149 0.382-0.495 0.233-0.773z">
            </path>
            <path
                d="M18.961 9.964c2.464 1.956 2.878 5.553 0.922 8.017-0.111 0.14-0.23 0.276-0.352 0.404-0.218 0.228-0.209 0.589 0.019 0.807 0.013 0.012 0.026 0.024 0.040 0.035 0.228 0.181 0.562 0.162 0.767-0.053 0.146-0.153 0.288-0.316 0.421-0.483 2.347-2.957 1.851-7.273-1.106-9.62-0.247-0.196-0.606-0.155-0.802 0.092s-0.155 0.606 0.092 0.802z">
            </path>
            <path
                d="M21.56 6.69c0.247 0.196 0.606 0.155 0.802-0.092l1.987-2.503c0.196-0.247 0.155-0.606-0.092-0.802s-0.606-0.155-0.802 0.092l-1.987 2.503c-0.196 0.247-0.155 0.606 0.092 0.802z">
            </path>
            <path
                d="M16.338 3.984c-0.031 0.209 0.055 0.409 0.21 0.531 0.076 0.060 0.168 0.102 0.271 0.117 0.312 0.046 0.602-0.169 0.648-0.481l0.469-3.16c0.046-0.312-0.169-0.602-0.481-0.648s-0.602 0.169-0.648 0.481l-0.469 3.16z">
            </path>
            <path
                d="M20.936 27.092l-1.174-2.971c-0.116-0.293-0.447-0.437-0.741-0.321s-0.437 0.447-0.321 0.74l1.174 2.971c0.038 0.096 0.1 0.177 0.176 0.237 0.154 0.123 0.368 0.162 0.565 0.084 0.293-0.116 0.437-0.447 0.321-0.74z">
            </path>
            <path
                d="M9.767 1.931l1.174 2.971c0.038 0.096 0.1 0.177 0.176 0.237 0.154 0.123 0.368 0.162 0.565 0.084 0.293-0.116 0.437-0.447 0.321-0.74l-1.174-2.971c-0.116-0.293-0.447-0.437-0.741-0.321s-0.437 0.447-0.321 0.74z">
            </path>
            <path
                d="M26.478 22.615l-2.503-1.987c-0.247-0.196-0.606-0.155-0.802 0.092s-0.155 0.606 0.092 0.802l2.503 1.987c0.247 0.196 0.606 0.155 0.802-0.092s0.155-0.606-0.092-0.802z">
            </path>
            <path
                d="M7.531 8.303c0.196-0.247 0.155-0.606-0.092-0.802l-2.503-1.987c-0.247-0.196-0.606-0.155-0.802 0.092s-0.155 0.606 0.092 0.802l2.503 1.987c0.247 0.196 0.606 0.155 0.802-0.092z">
            </path>
            <path
                d="M25.441 16.509c0.076 0.060 0.168 0.102 0.271 0.117l3.16 0.469c0.312 0.046 0.602-0.169 0.648-0.481s-0.169-0.602-0.481-0.648l-3.16-0.469c-0.312-0.046-0.602 0.169-0.648 0.481-0.031 0.209 0.056 0.409 0.21 0.531z">
            </path>
            <path
                d="M4.992 12.397l-3.16-0.469c-0.312-0.046-0.602 0.169-0.648 0.481-0.031 0.209 0.056 0.409 0.21 0.531 0.076 0.060 0.168 0.102 0.271 0.117l3.16 0.469c0.312 0.046 0.602-0.169 0.648-0.481s-0.169-0.602-0.481-0.648z">
            </path>
            <path
                d="M24.64 10.842c0.038 0.096 0.1 0.177 0.175 0.237 0.154 0.123 0.368 0.162 0.565 0.084l2.971-1.174c0.293-0.116 0.437-0.447 0.321-0.741s-0.447-0.437-0.741-0.321l-2.971 1.174c-0.293 0.116-0.437 0.447-0.321 0.741z">
            </path>
        </symbol>
        <symbol id="close" viewBox="0 0 32 32">
            <path
                d="M19.551 16l10.83-10.804c0.474-0.474 0.741-1.117 0.741-1.788s-0.266-1.314-0.741-1.788c-0.474-0.474-1.117-0.741-1.788-0.741s-1.314 0.266-1.788 0.741l-10.804 10.83-10.804-10.83c-0.474-0.474-1.117-0.741-1.788-0.741s-1.314 0.266-1.788 0.741c-0.474 0.474-0.741 1.117-0.741 1.788s0.266 1.314 0.741 1.788l10.83 10.804-10.83 10.805c-0.236 0.234-0.423 0.513-0.551 0.82s-0.194 0.636-0.194 0.969 0.066 0.662 0.194 0.969c0.128 0.307 0.315 0.585 0.551 0.82 0.234 0.236 0.513 0.423 0.82 0.551s0.636 0.194 0.969 0.194c0.332 0 0.662-0.066 0.969-0.194s0.585-0.315 0.82-0.551l10.804-10.829 10.804 10.829c0.234 0.236 0.513 0.423 0.82 0.551s0.636 0.194 0.969 0.194 0.662-0.066 0.969-0.194c0.307-0.128 0.585-0.315 0.82-0.551 0.236-0.234 0.423-0.513 0.551-0.82s0.194-0.636 0.194-0.969c0-0.332-0.066-0.662-0.194-0.969s-0.315-0.585-0.551-0.82l-10.83-10.805z">
            </path>
        </symbol>
        <symbol id="Menu" viewBox="0 0 56 32">
            <path
                d="M0 1.882c0-1.040 0.843-1.882 1.882-1.882h52.706c1.040 0 1.882 0.843 1.882 1.882v1.882c0 1.040-0.843 1.882-1.882 1.882h-52.706c-1.040 0-1.882-0.843-1.882-1.882v-1.882z">
            </path>
            <path
                d="M0 15.059c0-1.040 0.843-1.882 1.882-1.882h52.706c1.040 0 1.882 0.843 1.882 1.882v1.882c0 1.040-0.843 1.882-1.882 1.882h-52.706c-1.040 0-1.882-0.843-1.882-1.882v-1.882z">
            </path>
            <path
                d="M0 28.235c0-1.040 0.843-1.882 1.882-1.882h36.178c1.040 0 1.882 0.843 1.882 1.882v1.882c0 1.040-0.843 1.882-1.882 1.882h-36.178c-1.040 0-1.882-0.843-1.882-1.882v-1.882z">
            </path>
        </symbol>
        <symbol id="group-8" viewBox="0 0 60 32">
            <path
                d="M9.229 9.548h-0.002c-1.684 0-3.048 1.33-3.048 2.971v0.002c0 1.641 1.365 2.971 3.048 2.971h0.002c1.684 0 3.048-1.33 3.048-2.971v-0.002c0-1.641-1.365-2.971-3.048-2.971z">
            </path>
            <path fill="#2196f3" style="fill: var(--color21, #2196f3)"
                d="M31.73 8.599c-0.005-2.279-0.936-4.463-2.589-6.074s-3.894-2.519-6.233-2.524v0c-2.339 0.004-4.581 0.911-6.235 2.523s-2.586 3.796-2.59 6.076v12.566c0 0 17.645-1.915 17.647-12.564v-0.002z">
            </path>
            <path fill="#2196f3" style="fill: var(--color21, #2196f3)"
                d="M0 25.289c0.004 1.586 0.652 3.105 1.803 4.226s2.709 1.753 4.336 1.758c1.627-0.005 3.185-0.636 4.336-1.757s1.799-2.64 1.803-4.225v-8.744c0 0-12.278 1.334-12.278 8.742zM6.139 26.856c-0.318 0-0.629-0.092-0.893-0.264s-0.47-0.417-0.592-0.703-0.154-0.601-0.091-0.905c0.062-0.304 0.215-0.583 0.44-0.802s0.511-0.368 0.823-0.429c0.312-0.060 0.635-0.029 0.929 0.089s0.545 0.319 0.721 0.577c0.177 0.258 0.271 0.561 0.271 0.87 0.001 0.206-0.040 0.411-0.121 0.601s-0.199 0.364-0.348 0.51c-0.149 0.146-0.327 0.262-0.522 0.341s-0.405 0.12-0.617 0.12v-0.006z">
            </path>
            <path
                d="M18.671 25.884h-1.256v1.297h-0.654v-3.174h2.067v0.53h-1.413v0.82h1.256v0.528zM21.815 25.666c0 0.312-0.055 0.587-0.166 0.822s-0.269 0.417-0.475 0.545c-0.205 0.128-0.44 0.192-0.706 0.192-0.263 0-0.498-0.063-0.704-0.19s-0.366-0.307-0.48-0.541c-0.113-0.235-0.171-0.506-0.172-0.811v-0.157c0-0.312 0.056-0.587 0.168-0.824 0.113-0.238 0.273-0.421 0.477-0.547 0.206-0.128 0.442-0.192 0.706-0.192s0.499 0.064 0.704 0.192c0.206 0.126 0.366 0.309 0.477 0.547 0.113 0.237 0.17 0.511 0.17 0.822v0.142zM21.152 25.522c0-0.333-0.060-0.586-0.179-0.759s-0.289-0.259-0.51-0.259c-0.219 0-0.389 0.086-0.508 0.257-0.119 0.17-0.18 0.42-0.181 0.75v0.155c0 0.324 0.060 0.576 0.179 0.754s0.291 0.268 0.515 0.268c0.219 0 0.388-0.086 0.506-0.257 0.118-0.173 0.177-0.424 0.179-0.754v-0.155zM23.936 26.348c0-0.124-0.044-0.218-0.131-0.283-0.087-0.067-0.244-0.137-0.471-0.209-0.227-0.074-0.406-0.147-0.538-0.218-0.36-0.195-0.541-0.457-0.541-0.787 0-0.172 0.048-0.324 0.144-0.458 0.097-0.135 0.236-0.241 0.416-0.316 0.182-0.076 0.385-0.113 0.611-0.113 0.227 0 0.429 0.041 0.606 0.124 0.177 0.081 0.315 0.197 0.412 0.347 0.099 0.15 0.148 0.32 0.148 0.51h-0.654c0-0.145-0.046-0.258-0.137-0.338-0.092-0.081-0.22-0.122-0.386-0.122-0.16 0-0.284 0.034-0.373 0.102-0.089 0.067-0.133 0.156-0.133 0.266 0 0.103 0.052 0.19 0.155 0.259 0.105 0.070 0.258 0.135 0.46 0.196 0.372 0.112 0.643 0.251 0.813 0.416s0.255 0.372 0.255 0.619c0 0.275-0.104 0.491-0.312 0.648-0.208 0.156-0.488 0.233-0.839 0.233-0.244 0-0.467-0.044-0.667-0.133-0.201-0.090-0.354-0.213-0.46-0.368-0.105-0.156-0.157-0.336-0.157-0.541h0.656c0 0.35 0.209 0.525 0.628 0.525 0.156 0 0.277-0.031 0.364-0.094 0.087-0.064 0.131-0.153 0.131-0.266zM27.427 24.536h-0.972v2.645h-0.654v-2.645h-0.959v-0.53h2.586v0.53zM29.712 25.805h-1.256v0.85h1.474v0.525h-2.128v-3.174h2.124v0.53h-1.47v0.757h1.256v0.512zM31.489 26.019h-0.521v1.162h-0.654v-3.174h1.18c0.375 0 0.664 0.084 0.868 0.251s0.305 0.403 0.305 0.709c0 0.217-0.047 0.397-0.142 0.543-0.093 0.144-0.235 0.259-0.425 0.344l0.687 1.297v0.030h-0.702l-0.595-1.162zM30.967 25.489h0.528c0.164 0 0.291-0.041 0.382-0.124 0.090-0.084 0.135-0.2 0.135-0.347 0-0.15-0.043-0.267-0.129-0.353-0.084-0.086-0.214-0.129-0.39-0.129h-0.525v0.953zM34.931 26.063v1.118h-0.654v-3.174h1.238c0.238 0 0.448 0.044 0.628 0.131 0.182 0.087 0.321 0.212 0.419 0.373 0.097 0.16 0.146 0.342 0.146 0.547 0 0.311-0.107 0.557-0.32 0.737-0.212 0.179-0.507 0.268-0.883 0.268h-0.573zM34.931 25.533h0.584c0.173 0 0.305-0.041 0.395-0.122 0.092-0.081 0.137-0.198 0.137-0.349 0-0.156-0.046-0.281-0.137-0.377s-0.218-0.145-0.379-0.148h-0.6v0.996zM39.069 25.805h-1.256v0.85h1.474v0.525h-2.128v-3.174h2.124v0.53h-1.469v0.757h1.256v0.512zM42.104 24.536h-0.972v2.645h-0.654v-2.645h-0.959v-0.53h2.586v0.53zM44.389 25.805h-1.256v0.85h1.474v0.525h-2.128v-3.174h2.124v0.53h-1.469v0.757h1.256v0.512zM46.166 26.019h-0.521v1.162h-0.654v-3.174h1.18c0.375 0 0.664 0.084 0.868 0.251s0.305 0.403 0.305 0.709c0 0.217-0.047 0.397-0.142 0.543-0.093 0.144-0.235 0.259-0.425 0.344l0.687 1.297v0.030h-0.702l-0.595-1.162zM45.645 25.489h0.528c0.164 0 0.291-0.041 0.382-0.124 0.090-0.084 0.135-0.2 0.135-0.347 0-0.15-0.043-0.267-0.129-0.353-0.084-0.086-0.214-0.129-0.39-0.129h-0.525v0.953zM49.489 26.348c0-0.124-0.044-0.218-0.131-0.283-0.087-0.067-0.244-0.137-0.471-0.209-0.227-0.074-0.406-0.147-0.539-0.218-0.36-0.195-0.541-0.457-0.541-0.787 0-0.172 0.048-0.324 0.144-0.458 0.097-0.135 0.236-0.241 0.416-0.316 0.182-0.076 0.385-0.113 0.61-0.113 0.227 0 0.429 0.041 0.606 0.124 0.177 0.081 0.315 0.197 0.412 0.347 0.099 0.15 0.148 0.32 0.148 0.51h-0.654c0-0.145-0.046-0.258-0.137-0.338-0.092-0.081-0.22-0.122-0.386-0.122-0.16 0-0.284 0.034-0.373 0.102-0.089 0.067-0.133 0.156-0.133 0.266 0 0.103 0.052 0.19 0.155 0.259 0.105 0.070 0.258 0.135 0.46 0.196 0.372 0.112 0.643 0.251 0.813 0.416s0.255 0.372 0.255 0.619c0 0.275-0.104 0.491-0.312 0.648-0.208 0.156-0.488 0.233-0.839 0.233-0.244 0-0.467-0.044-0.667-0.133-0.201-0.090-0.354-0.213-0.46-0.368-0.105-0.156-0.157-0.336-0.157-0.541h0.656c0 0.35 0.209 0.525 0.628 0.525 0.156 0 0.277-0.031 0.364-0.094 0.087-0.064 0.131-0.153 0.131-0.266z">
            </path>
        </symbol>
    </defs>
</svg>